<svg id="descargar" xmlns="http://www.w3.org/2000/svg" xmlns:xlink="http://www.w3.org/1999/xlink" width="17.989" height="18" viewBox="0 0 17.989 18">
  <defs>
    <clipPath id="clip-path">
      <rect id="Rectángulo_27163" data-name="Rectángulo 27163" width="17.989" height="18" fill="#d5007f"/>
    </clipPath>
  </defs>
  <g id="Grupo_24916" data-name="Grupo 24916" clip-path="url(#clip-path)">
    <path id="Trazado_28296" data-name="Trazado 28296" d="M17.355,46.477H.634a.634.634,0,0,0,0,1.268H17.355a.634.634,0,0,0,0-1.268" transform="translate(0 -29.745)" fill="#d5007f"/>
    <path id="Trazado_28297" data-name="Trazado 28297" d="M16.45,13.384a.635.635,0,0,0,.216.147l.03.009a.6.6,0,0,0,.087.026.62.62,0,0,0,.093.009c.01,0,.019,0,.029,0h0a.637.637,0,0,0,.125-.013l.021-.006a.621.621,0,0,0,.1-.031l.009-.005a.618.618,0,0,0,.194-.131l3.865-3.864a.634.634,0,0,0-.9-.9l-2.784,2.784,0-10.781a.634.634,0,1,0-1.268,0l0,10.777-2.78-2.78a.634.634,0,0,0-.9.9Z" transform="translate(-7.941)" fill="#d5007f"/>
  </g>
</svg>
