<svg id="Guardar" xmlns="http://www.w3.org/2000/svg" xmlns:xlink="http://www.w3.org/1999/xlink" width="25" height="25" viewBox="0 0 25 25">
  <defs>
    <clipPath id="clip-path">
      <rect id="Rectángulo_27867" data-name="Rectángulo 27867" width="12.999" height="13" fill="#d5007f"/>
    </clipPath>
  </defs>
  <path id="Trazado_24804" data-name="Trazado 24804" d="M12.5,25A12.5,12.5,0,1,1,25,12.5,12.514,12.514,0,0,1,12.5,25m0-23.809A11.309,11.309,0,1,0,23.808,12.5,11.321,11.321,0,0,0,12.5,1.191" fill="#d5007f"/>
  <g id="Grupo_25398" data-name="Grupo 25398" transform="translate(6 6)">
    <g id="Grupo_25400" data-name="Grupo 25400" clip-path="url(#clip-path)">
      <path id="Trazado_29106" data-name="Trazado 29106" d="M12.737,2.975,10.171.292A.947.947,0,0,0,9.487,0H.947A.947.947,0,0,0,0,.947V12.053A.947.947,0,0,0,.947,13H12.052A.947.947,0,0,0,13,12.053V3.63a.947.947,0,0,0-.262-.654M6.747.947V1.974c0,.359.214.63.5.63H7.49c.284,0,.5-.271.5-.63V.947h.507V3.5a.041.041,0,0,1-.041.041H2.781A.041.041,0,0,1,2.74,3.5V.947ZM2.74,12.053V7.014a.041.041,0,0,1,.041-.041h7.391a.041.041,0,0,1,.041.041v5.039Zm9.312,0h-.894V7.014a.988.988,0,0,0-.987-.987H2.781a.988.988,0,0,0-.987.987v5.039H.947V.947h.847V3.5a.988.988,0,0,0,.987.987H8.454A.988.988,0,0,0,9.441,3.5V.947h.045L12.052,3.63Z" fill="#d5007f"/>
      <path id="Trazado_29107" data-name="Trazado 29107" d="M40.136,90.193H34.9a.473.473,0,1,0,0,.947h5.235a.473.473,0,0,0,0-.947" transform="translate(-31.168 -81.654)" fill="#d5007f"/>
      <path id="Trazado_29108" data-name="Trazado 29108" d="M40.136,107.773H34.9a.473.473,0,1,0,0,.947h5.235a.473.473,0,0,0,0-.947" transform="translate(-31.168 -97.57)" fill="#d5007f"/>
    </g>
  </g>
</svg>
