<svg id="Logo_SEyCAE" xmlns="http://www.w3.org/2000/svg" xmlns:xlink="http://www.w3.org/1999/xlink" width="132.864" height="60" viewBox="0 0 132.864 60">
  <defs>
    <clipPath id="clip-path">
      <rect id="Rectángulo_15" data-name="Rectángulo 15" width="132.864" height="60" fill="none"/>
    </clipPath>
  </defs>
  <g id="Grupo_51" data-name="Grupo 51" clip-path="url(#clip-path)">
    <path id="Trazado_14" data-name="Trazado 14" d="M116.394,55.012a2.115,2.115,0,0,1-2.11-2.122h0a23.734,23.734,0,0,0-47.466-.142,2.116,2.116,0,0,1-4.231-.012,27.965,27.965,0,0,1,55.93.167,2.115,2.115,0,0,1-2.122,2.11h0" transform="translate(12.517 4.971)" fill="#409aa1"/>
    <path id="Trazado_15" data-name="Trazado 15" d="M88.114,26.319h-.061A13.153,13.153,0,0,1,88.191.014h.062a13.153,13.153,0,0,1-.138,26.305m.106-22.074a8.922,8.922,0,0,0-.136,17.843h.042a8.922,8.922,0,0,0,.094-17.843" transform="translate(15.015 0.003)" fill="#409aa1"/>
    <path id="Trazado_16" data-name="Trazado 16" d="M80.057,19.9H47.969l3.8-3.8a.739.739,0,0,0,0-1.044l-3.438-3.438a.739.739,0,0,0-1.044,0L36.382,22.526a.8.8,0,0,0-.024,1.09L47.266,34.524a.739.739,0,0,0,1.044,0l3.438-3.438a.739.739,0,0,0,0-1.044l-3.8-3.8H80.057a1.168,1.168,0,0,0,1.168-1.168v-4A1.168,1.168,0,0,0,80.057,19.9" transform="translate(7.231 2.28)" fill="#409aa1"/>
    <path id="Trazado_17" data-name="Trazado 17" d="M47.986,36.138a1.932,1.932,0,0,1-1.37-.566L35.708,24.664a2.026,2.026,0,0,1,.011-2.773l10.92-10.921a1.943,1.943,0,0,1,2.741,0l3.439,3.439a1.942,1.942,0,0,1,0,2.741L51.065,18.9h29.19a2.37,2.37,0,0,1,2.368,2.365v4.006a2.369,2.369,0,0,1-2.368,2.366H51.042l1.752,1.754a1.935,1.935,0,0,1,0,2.741l-3.438,3.438a1.93,1.93,0,0,1-1.37.566M37.719,23.284,47.986,33.549l2.785-2.786-5.524-5.524H80.255L80.223,21.3H45.27l5.524-5.524-2.785-2.785Z" transform="translate(7.033 2.081)" fill="#333"/>
    <path id="Trazado_18" data-name="Trazado 18" d="M81.151,14a.745.745,0,0,0-.164-.259L70.079,2.833a.739.739,0,0,0-1.044,0L65.6,6.271a.739.739,0,0,0,0,1.044l3.8,3.8H37.312a1.168,1.168,0,0,0-1.168,1.168v4a1.168,1.168,0,0,0,1.168,1.168H69.422l-3.8,3.8a.739.739,0,0,0,0,1.044l3.438,3.438a.739.739,0,0,0,1.044,0L81.011,14.832a.732.732,0,0,0,.142-.83" transform="translate(7.229 0.523)" fill="#d5007f"/>
    <path id="Trazado_19" data-name="Trazado 19" d="M69.78,27.354a1.928,1.928,0,0,1-1.369-.566L64.972,23.35a1.94,1.94,0,0,1,0-2.741l1.753-1.753H37.512a2.37,2.37,0,0,1-2.368-2.368v-4a2.37,2.37,0,0,1,2.368-2.368H66.7L64.948,8.363a1.945,1.945,0,0,1,0-2.74l3.44-3.439a1.943,1.943,0,0,1,2.738,0l10.91,10.91a2.01,2.01,0,0,1,.028,2.784L71.151,26.788a1.935,1.935,0,0,1-1.372.566M67,21.979l2.785,2.785L80.047,14.5,69.757,4.207,66.972,6.993,72.5,12.516H37.512l.032,3.972,34.975-.032Z" transform="translate(7.029 0.324)" fill="#333"/>
    <path id="Trazado_20" data-name="Trazado 20" d="M59.281,52.506a2.075,2.075,0,0,1-2.075,2.075H2.3A2.077,2.077,0,0,1,.223,52.507h0a1.768,1.768,0,0,1,.018-.226,29.606,29.606,0,0,1,59.032,0,2.014,2.014,0,0,1,.012.226" transform="translate(0.045 4.997)" fill="#d5007f"/>
    <path id="Trazado_21" data-name="Trazado 21" d="M39.365,12.863A12.455,12.455,0,1,1,26.966.352h0a12.455,12.455,0,0,1,12.4,12.511" transform="translate(2.891 0.07)" fill="#d5007f"/>
  </g>
</svg>
