<svg xmlns="http://www.w3.org/2000/svg" xmlns:xlink="http://www.w3.org/1999/xlink" width="13.381" height="15" viewBox="0 0 13.381 15">
  <defs>
    <clipPath id="clip-path">
      <rect id="Rect치ngulo_26742" data-name="Rect치ngulo 26742" width="13.381" height="15" transform="translate(0 0)" fill="#d5007f"/>
    </clipPath>
  </defs>
  <g id="Icono_contrasena" data-name="Icono contrasena" transform="translate(-10.777 -273)">
    <rect id="Rect치ngulo_26743" data-name="Rect치ngulo 26743" width="13" height="15" transform="translate(11 273)" fill="#fff"/>
    <g id="Grupo_23573" data-name="Grupo 23573" transform="translate(10.777 273)">
      <g id="Grupo_23573-2" data-name="Grupo 23573" transform="translate(0 0)" clip-path="url(#clip-path)">
        <path id="Trazado_27196" data-name="Trazado 27196" d="M12.852,5.393H11.178V4.448a4.448,4.448,0,1,0-8.9,0v.945H.529A.529.529,0,0,0,0,5.922v8.548A.53.53,0,0,0,.529,15H12.852a.53.53,0,0,0,.529-.529V5.922a.529.529,0,0,0-.529-.529m-9.51-.945a3.389,3.389,0,1,1,6.778,0v.945H3.341Zm8.981,9.493H1.059V6.452H12.322Z" transform="translate(0 0)" fill="#d5007f"/>
        <path id="Trazado_27197" data-name="Trazado 27197" d="M17.282,31.312a2.331,2.331,0,1,0-2.331-2.331,2.334,2.334,0,0,0,2.331,2.331m0-3.6a1.272,1.272,0,1,1-1.272,1.272,1.274,1.274,0,0,1,1.272-1.272" transform="translate(-10.538 -18.785)" fill="#d5007f"/>
      </g>
    </g>
  </g>
</svg>
