<svg id="Ayuda" xmlns="http://www.w3.org/2000/svg" width="40" height="40" viewBox="0 0 40 40">
  <path id="Trazado_3389" data-name="Trazado 3389" d="M799.883,23.168a20.054,20.054,0,0,1,28.309,0,19.3,19.3,0,0,1,5.843,14.149,19.3,19.3,0,0,1-5.843,14.154,20.05,20.05,0,0,1-28.309,0,19.277,19.277,0,0,1-5.849-14.154A19.281,19.281,0,0,1,799.883,23.168ZM820.2,35.089a5.707,5.707,0,0,0-1.161-7.858,9,9,0,0,0-5.537-1.607,7.238,7.238,0,0,0-4.2,1.161q-2.507,1.7-2.5,6.071h4.371a5.076,5.076,0,0,1,.362-2.414,2.564,2.564,0,0,1,2.323-1.338,2.59,2.59,0,0,1,2.234.985,3.477,3.477,0,0,1,.713,2.052,3.528,3.528,0,0,1-.713,1.789,3.123,3.123,0,0,1-.894.889,8.493,8.493,0,0,0-3.126,2.681,8.4,8.4,0,0,0-.9,3.658.318.318,0,0,0,.362.358h3.478c.3,0,.452-.118.452-.358a6.886,6.886,0,0,1,.179-1.694,3.645,3.645,0,0,1,1.066-1.522l1.256-.8A9.955,9.955,0,0,0,820.2,35.089Zm-4.376,11.426a2.473,2.473,0,0,0-.669-1.965,2.536,2.536,0,0,0-1.92-.8,2.742,2.742,0,0,0-1.876.713,2.4,2.4,0,0,0-.8,1.875,2.681,2.681,0,0,0,.713,1.921,2.34,2.34,0,0,0,1.78.759,2.957,2.957,0,0,0,1.965-.671A2.256,2.256,0,0,0,815.822,46.515Z" transform="translate(-794.034 -17.32)" fill="#fff"/>
</svg>
