<svg id="Icono_sust" xmlns="http://www.w3.org/2000/svg" xmlns:xlink="http://www.w3.org/1999/xlink" width="177.152" height="80" viewBox="0 0 177.152 80">
  <defs>
    <clipPath id="clip-path">
      <rect id="Rectángulo_26989" data-name="Rectángulo 26989" width="177.152" height="80" fill="none"/>
    </clipPath>
  </defs>
  <g id="Grupo_24596" data-name="Grupo 24596" clip-path="url(#clip-path)">
    <path id="Trazado_27510" data-name="Trazado 27510" d="M134.329,65.065a2.82,2.82,0,0,1-2.813-2.829v0a31.645,31.645,0,0,0-63.288-.189,2.821,2.821,0,0,1-5.642-.016,37.287,37.287,0,0,1,74.573.222,2.82,2.82,0,0,1-2.829,2.813h0" transform="translate(37.552 14.913)" fill="#409aa1"/>
    <path id="Trazado_27511" data-name="Trazado 27511" d="M92.461,35.088H92.38A17.538,17.538,0,0,1,92.564.014h.083a17.538,17.538,0,0,1-.184,35.074M92.6,5.656a11.9,11.9,0,0,0-.181,23.79h.056A11.9,11.9,0,0,0,92.6,5.656" transform="translate(45.044 0.008)" fill="#409aa1"/>
    <path id="Trazado_27512" data-name="Trazado 27512" d="M94.691,22.735H51.907l5.069-5.069a.985.985,0,0,0,0-1.392L52.391,11.69a.985.985,0,0,0-1.392,0L36.457,26.234a1.068,1.068,0,0,0-.032,1.453L50.969,42.231a.985.985,0,0,0,1.392,0l4.584-4.584a.985.985,0,0,0,0-1.392l-5.069-5.069H94.691a1.558,1.558,0,0,0,1.557-1.557V24.29a1.558,1.558,0,0,0-1.557-1.557" transform="translate(21.693 6.841)" fill="#409aa1"/>
    <path id="Trazado_27513" data-name="Trazado 27513" d="M52.26,44.717a2.577,2.577,0,0,1-1.827-.755L35.889,29.417a2.7,2.7,0,0,1,.014-3.7l14.56-14.562a2.59,2.59,0,0,1,3.654,0L58.7,15.742a2.589,2.589,0,0,1,0,3.654l-2.338,2.338h38.92a3.161,3.161,0,0,1,3.157,3.154v5.341a3.159,3.159,0,0,1-3.157,3.155H56.335l2.336,2.339a2.58,2.58,0,0,1,0,3.654l-4.584,4.584a2.574,2.574,0,0,1-1.827.755M38.57,27.577,52.26,41.264l3.714-3.715-7.365-7.365H95.285l-.043-5.25h-46.6L56,17.569,52.29,13.856Z" transform="translate(21.099 6.242)" fill="#fff"/>
    <path id="Trazado_27514" data-name="Trazado 27514" d="M96.154,17.795a.993.993,0,0,0-.219-.346L81.39,2.905a.985.985,0,0,0-1.392,0L75.414,7.489a.985.985,0,0,0,0,1.392l5.069,5.069H37.7a1.558,1.558,0,0,0-1.557,1.557v5.339A1.558,1.558,0,0,0,37.7,22.4H80.515l-5.069,5.069a.985.985,0,0,0,0,1.392l4.584,4.584a.985.985,0,0,0,1.392,0L95.966,18.9a.976.976,0,0,0,.189-1.107" transform="translate(21.686 1.57)" fill="#d5007f"/>
    <path id="Trazado_27515" data-name="Trazado 27515" d="M81.325,35.933a2.57,2.57,0,0,1-1.826-.755l-4.584-4.584a2.586,2.586,0,0,1,0-3.654L77.253,24.6H38.3a3.16,3.16,0,0,1-3.157-3.157V16.106A3.16,3.16,0,0,1,38.3,12.949h38.92l-2.338-2.338a2.593,2.593,0,0,1,0-3.653l4.587-4.586a2.591,2.591,0,0,1,3.651,0L97.666,16.917a2.68,2.68,0,0,1,.037,3.712L83.154,35.178a2.58,2.58,0,0,1-1.829.755m-3.712-7.166,3.714,3.714L95.014,18.79,81.294,5.07,77.581,8.784l7.365,7.365H38.3l.043,5.3L84.978,21.4Z" transform="translate(21.086 0.971)" fill="#fff"/>
    <path id="Trazado_27516" data-name="Trazado 27516" d="M78.967,61.679A2.766,2.766,0,0,1,76.2,64.445H2.994A2.769,2.769,0,0,1,.223,61.68v0a2.358,2.358,0,0,1,.024-.3,39.475,39.475,0,0,1,78.709,0,2.686,2.686,0,0,1,.016.3" transform="translate(0.134 14.992)" fill="#d5007f"/>
    <path id="Trazado_27517" data-name="Trazado 27517" d="M47.668,17.034A16.607,16.607,0,1,1,31.137.352h0A16.607,16.607,0,0,1,47.668,17.034" transform="translate(8.673 0.211)" fill="#d5007f"/>
  </g>
</svg>
