<svg xmlns="http://www.w3.org/2000/svg" width="24.737" height="25.006" viewBox="0 0 24.737 25.006"><defs><style>.a{fill:#d3097f;}.b{fill:#fff;}</style></defs><g transform="translate(0)"><path class="a" d="M569.845,189.2a12.368,12.368,0,1,1-12.369-12.372A12.368,12.368,0,0,1,569.845,189.2Z" transform="translate(-545.108 -176.824)"/><g transform="translate(3.976 5.263)"><path class="b" d="M555.34,183.9a8.727,8.727,0,0,0-8.393,6.389,12.28,12.28,0,0,0,16.786,0A8.728,8.728,0,0,0,555.34,183.9Z" transform="translate(-546.947 -173.862)"/><path class="b" d="M553.25,188.241a4.492,4.492,0,1,0-4.5-4.491A4.493,4.493,0,0,0,553.25,188.241Z" transform="translate(-544.854 -179.258)"/></g></g></svg>