<svg xmlns="http://www.w3.org/2000/svg" width="89.061" height="30.077" viewBox="0 0 89.061 30.077">
  <g id="Grupo_19" data-name="Grupo 19" transform="translate(0 0)">
    <path id="Trazado_24" data-name="Trazado 24" d="M89.864,514.878h21.963l1.3.417H88.753Zm-.192-.577-3.946,1.533h30.362l-3.926-1.533Z" transform="translate(-85.726 -498.645)" fill="#fff"/>
    <path id="Trazado_25" data-name="Trazado 25" d="M90.555,515.394s3.306,2.791,5.064,3.235c0,0,2.54-2.951,2.9-3.235Z" transform="translate(-80.114 -497.375)" fill="#fff"/>
    <path id="Trazado_26" data-name="Trazado 26" d="M104.909,508.75h5.725l12.2,9.215V508.75h5.779v15.777h-5.779l-12.155-9.4v9.4h-5.771Z" transform="translate(-63.433 -505.096)" fill="#fff"/>
    <g id="Grupo_18" data-name="Grupo 18" transform="translate(1.749 25.459)">
      <path id="Trazado_27" data-name="Trazado 27" d="M87.659,523.194H86.535v-4.251h1.124Z" transform="translate(-86.535 -518.71)" fill="#fff"/>
      <path id="Trazado_28" data-name="Trazado 28" d="M88.517,519.483l.035.37a1.227,1.227,0,0,1,.992-.43,1.048,1.048,0,0,1,.811.3,1.309,1.309,0,0,1,.277.887v2.035H89.546v-1.991a.493.493,0,0,0-.106-.352.525.525,0,0,0-.385-.112.534.534,0,0,0-.471.227v2.231H87.5v-3.159Z" transform="translate(-85.41 -518.156)" fill="#fff"/>
      <path id="Trazado_29" data-name="Trazado 29" d="M91.272,521.75a.225.225,0,0,0-.145-.2,2.309,2.309,0,0,0-.549-.156,2.679,2.679,0,0,1-.668-.216,1.092,1.092,0,0,1-.4-.322.725.725,0,0,1-.136-.435.854.854,0,0,1,.393-.718,1.75,1.75,0,0,1,1.033-.281,1.951,1.951,0,0,1,1.1.283.862.862,0,0,1,.417.744H91.236c0-.253-.147-.378-.439-.378a.463.463,0,0,0-.285.084.264.264,0,0,0-.115.216.231.231,0,0,0,.141.212,1.372,1.372,0,0,0,.45.136,3.9,3.9,0,0,1,.545.125c.521.162.783.456.783.878a.811.811,0,0,1-.422.7,2,2,0,0,1-1.094.27,2.031,2.031,0,0,1-.8-.145,1.336,1.336,0,0,1-.545-.4.851.851,0,0,1-.2-.528h1.012a.372.372,0,0,0,.16.318.691.691,0,0,0,.4.1.563.563,0,0,0,.333-.08A.263.263,0,0,0,91.272,521.75Z" transform="translate(-83.376 -518.156)" fill="#fff"/>
      <path id="Trazado_30" data-name="Trazado 30" d="M92.428,519.086v.787H93v.681h-.571V522a.343.343,0,0,0,.069.249.4.4,0,0,0,.279.069,1.581,1.581,0,0,0,.27-.017v.7a2.163,2.163,0,0,1-.61.084,1.215,1.215,0,0,1-.826-.238.929.929,0,0,1-.266-.726v-1.568H90.9v-.683h.443v-.785Z" transform="translate(-81.46 -518.546)" fill="#fff"/>
      <path id="Trazado_31" data-name="Trazado 31" d="M92.183,519.329a.425.425,0,0,1,.169-.346.773.773,0,0,1,.867,0,.44.44,0,0,1,.071.618.56.56,0,0,1-.071.071.765.765,0,0,1-.867,0A.424.424,0,0,1,92.183,519.329Zm1.15,3.972H92.248v-3.157h1.085Z" transform="translate(-79.971 -518.817)" fill="#fff"/>
      <path id="Trazado_32" data-name="Trazado 32" d="M94.548,519.086v.787h.571v.681h-.571V522a.336.336,0,0,0,.071.249.4.4,0,0,0,.279.069,1.57,1.57,0,0,0,.268-.017v.7a2.141,2.141,0,0,1-.61.084,1.209,1.209,0,0,1-.824-.238.938.938,0,0,1-.268-.726v-1.568h-.443v-.683h.443v-.785Z" transform="translate(-78.996 -518.546)" fill="#fff"/>
      <path id="Trazado_33" data-name="Trazado 33" d="M96.388,522.263a1.331,1.331,0,0,1-1.795.1,1.214,1.214,0,0,1-.294-.869V519.45h1.083v2.05c0,.27.145.406.432.406a.583.583,0,0,0,.53-.242V519.45h1.09v3.157H96.42Z" transform="translate(-77.515 -518.12)" fill="#fff"/>
      <path id="Trazado_34" data-name="Trazado 34" d="M97.542,519.086v.787h.573v.681h-.573V522a.345.345,0,0,0,.071.249.4.4,0,0,0,.279.069,1.6,1.6,0,0,0,.27-.017v.7a2.163,2.163,0,0,1-.61.084,1.212,1.212,0,0,1-.826-.238.929.929,0,0,1-.266-.726v-1.568h-.443v-.683h.443v-.785Z" transform="translate(-75.515 -518.546)" fill="#fff"/>
      <path id="Trazado_35" data-name="Trazado 35" d="M97.2,521.032a1.717,1.717,0,0,1,.2-.841,1.38,1.38,0,0,1,.582-.569,1.886,1.886,0,0,1,.889-.2,1.7,1.7,0,0,1,1.23.439,1.607,1.607,0,0,1,.45,1.2v.035a1.558,1.558,0,0,1-.452,1.172,1.684,1.684,0,0,1-1.222.434,1.719,1.719,0,0,1-1.191-.4,1.513,1.513,0,0,1-.484-1.1Zm1.081.061a1.1,1.1,0,0,0,.149.644.528.528,0,0,0,.448.2q.577,0,.59-.809v-.1c0-.567-.2-.848-.6-.85-.363,0-.558.244-.588.733Z" transform="translate(-74.145 -518.157)" fill="#fff"/>
      <path id="Trazado_36" data-name="Trazado 36" d="M103.888,523.194h-1.12l-1.656-2.644v2.644H99.985v-4.251h1.126l1.652,2.644v-2.644h1.124Z" transform="translate(-70.905 -518.71)" fill="#fff"/>
      <path id="Trazado_37" data-name="Trazado 37" d="M104.256,522.639a1.13,1.13,0,0,1-.1-.283,1.056,1.056,0,0,1-.835.342,1.311,1.311,0,0,1-.837-.27.833.833,0,0,1-.342-.679.855.855,0,0,1,.417-.776,2.291,2.291,0,0,1,1.213-.262h.335v-.169c0-.292-.138-.437-.415-.437-.257,0-.385.115-.385.346h-1.083a.857.857,0,0,1,.428-.744,1.937,1.937,0,0,1,1.092-.285,1.7,1.7,0,0,1,1.051.3.986.986,0,0,1,.393.807v1.4a1.342,1.342,0,0,0,.147.666v.05Zm-.677-.642a.646.646,0,0,0,.335-.08.54.54,0,0,0,.192-.177v-.5h-.316c-.376,0-.564.151-.564.458a.26.26,0,0,0,.1.218A.381.381,0,0,0,103.579,522Z" transform="translate(-68.398 -518.155)" fill="#fff"/>
      <path id="Trazado_38" data-name="Trazado 38" d="M105.491,521.94a.514.514,0,0,0,.355-.112.4.4,0,0,0,.121-.314h1.014a1.049,1.049,0,0,1-.409.852,1.613,1.613,0,0,1-2.685-1.3v-.043a1.758,1.758,0,0,1,.195-.843,1.342,1.342,0,0,1,.56-.564,1.822,1.822,0,0,1,.867-.2,1.586,1.586,0,0,1,1.075.342,1.155,1.155,0,0,1,.4.925h-1.016a.511.511,0,0,0-.132-.376.477.477,0,0,0-.352-.132c-.281,0-.443.162-.491.486a3.12,3.12,0,0,0-.024.426,1.24,1.24,0,0,0,.125.659A.446.446,0,0,0,105.491,521.94Z" transform="translate(-66.374 -518.157)" fill="#fff"/>
      <path id="Trazado_39" data-name="Trazado 39" d="M105.645,519.329a.425.425,0,0,1,.169-.346.773.773,0,0,1,.867,0,.44.44,0,0,1,.071.618.558.558,0,0,1-.071.071.765.765,0,0,1-.867,0A.424.424,0,0,1,105.645,519.329Zm1.15,3.972H105.71v-3.157H106.8Z" transform="translate(-64.327 -518.817)" fill="#fff"/>
      <path id="Trazado_40" data-name="Trazado 40" d="M106.544,521.032a1.717,1.717,0,0,1,.2-.841,1.38,1.38,0,0,1,.582-.569,1.892,1.892,0,0,1,.889-.2,1.7,1.7,0,0,1,1.23.439,1.607,1.607,0,0,1,.45,1.2v.035a1.55,1.55,0,0,1-.452,1.172,1.681,1.681,0,0,1-1.222.434,1.722,1.722,0,0,1-1.191-.4,1.514,1.514,0,0,1-.484-1.1Zm1.081.061a1.088,1.088,0,0,0,.151.644.522.522,0,0,0,.445.2q.577,0,.59-.809v-.1c0-.567-.2-.848-.6-.85-.361,0-.558.244-.588.733Z" transform="translate(-63.283 -518.157)" fill="#fff"/>
      <path id="Trazado_41" data-name="Trazado 41" d="M109.437,519.483l.035.37a1.23,1.23,0,0,1,.992-.43,1.045,1.045,0,0,1,.811.3,1.3,1.3,0,0,1,.277.887v2.035h-1.083v-1.991a.5.5,0,0,0-.106-.352.53.53,0,0,0-.387-.112.536.536,0,0,0-.471.227v2.231h-1.081v-3.159Z" transform="translate(-61.099 -518.156)" fill="#fff"/>
      <path id="Trazado_42" data-name="Trazado 42" d="M112.307,522.639a1.027,1.027,0,0,1-.1-.283,1.063,1.063,0,0,1-.835.342,1.311,1.311,0,0,1-.837-.27.833.833,0,0,1-.342-.679.855.855,0,0,1,.417-.776,2.271,2.271,0,0,1,1.213-.262h.333v-.169c0-.292-.136-.437-.413-.437-.257,0-.385.117-.385.346h-1.085a.859.859,0,0,1,.43-.744,1.937,1.937,0,0,1,1.092-.285,1.7,1.7,0,0,1,1.051.3.986.986,0,0,1,.394.807v1.4a1.342,1.342,0,0,0,.147.666v.05ZM111.63,522a.651.651,0,0,0,.335-.08.516.516,0,0,0,.19-.177v-.5h-.314c-.378,0-.566.154-.564.458a.269.269,0,0,0,.1.218A.381.381,0,0,0,111.63,522Z" transform="translate(-59.041 -518.155)" fill="#fff"/>
      <path id="Trazado_43" data-name="Trazado 43" d="M113.109,523.319h-1.085v-4.484h1.085Z" transform="translate(-56.914 -518.835)" fill="#fff"/>
      <path id="Trazado_44" data-name="Trazado 44" d="M116.754,521.388h-1.773V522.4h2.093v.789h-3.219v-4.251h3.226v.791h-2.1v.9h1.771Z" transform="translate(-54.787 -518.71)" fill="#fff"/>
      <path id="Trazado_45" data-name="Trazado 45" d="M116.766,523.319h-1.085v-4.484h1.085Z" transform="translate(-52.665 -518.835)" fill="#fff"/>
      <path id="Trazado_46" data-name="Trazado 46" d="M118.355,522.7a1.894,1.894,0,0,1-1.3-.435,1.425,1.425,0,0,1-.5-1.126v-.082a1.808,1.808,0,0,1,.2-.856,1.348,1.348,0,0,1,.575-.573,1.858,1.858,0,0,1,.9-.2,1.582,1.582,0,0,1,1.157.413,1.54,1.54,0,0,1,.424,1.15v.383h-2.149a.7.7,0,0,0,.253.417.8.8,0,0,0,.508.151,1.019,1.019,0,0,0,.8-.326l.493.532a1.387,1.387,0,0,1-.573.4A2.129,2.129,0,0,1,118.355,522.7Zm-.123-2.517c-.316,0-.5.19-.564.573h1.092v-.076a.472.472,0,0,0-.132-.368A.562.562,0,0,0,118.232,520.179Z" transform="translate(-51.643 -518.153)" fill="#fff"/>
      <path id="Trazado_47" data-name="Trazado 47" d="M119.933,521.94a.509.509,0,0,0,.352-.112.4.4,0,0,0,.123-.314h1.014a1.051,1.051,0,0,1-.411.852,1.612,1.612,0,0,1-2.683-1.3v-.043a1.756,1.756,0,0,1,.192-.843,1.354,1.354,0,0,1,.56-.564,1.828,1.828,0,0,1,.867-.2,1.579,1.579,0,0,1,1.075.342,1.141,1.141,0,0,1,.4.925h-1.012a.5.5,0,0,0-.134-.376.47.47,0,0,0-.352-.132c-.279,0-.443.162-.491.486a3.522,3.522,0,0,0-.024.426,1.242,1.242,0,0,0,.128.659A.447.447,0,0,0,119.933,521.94Z" transform="translate(-49.591 -518.157)" fill="#fff"/>
      <path id="Trazado_48" data-name="Trazado 48" d="M121.494,519.086v.787h.571v.681h-.571V522a.343.343,0,0,0,.069.249.4.4,0,0,0,.279.069,1.581,1.581,0,0,0,.27-.017v.7a2.163,2.163,0,0,1-.61.084,1.218,1.218,0,0,1-.826-.238.936.936,0,0,1-.266-.726v-1.568h-.443v-.683h.443v-.785Z" transform="translate(-47.683 -518.546)" fill="#fff"/>
      <path id="Trazado_49" data-name="Trazado 49" d="M121.147,521.032a1.743,1.743,0,0,1,.2-.841,1.367,1.367,0,0,1,.582-.569,1.886,1.886,0,0,1,.889-.2,1.688,1.688,0,0,1,1.228.439,1.59,1.59,0,0,1,.45,1.2v.035a1.548,1.548,0,0,1-.45,1.172,1.684,1.684,0,0,1-1.222.434,1.715,1.715,0,0,1-1.191-.4,1.524,1.524,0,0,1-.486-1.1Zm1.083.061a1.088,1.088,0,0,0,.151.644.522.522,0,0,0,.445.2q.577,0,.59-.809v-.1c0-.567-.2-.848-.6-.85-.363,0-.558.244-.588.733Z" transform="translate(-46.313 -518.157)" fill="#fff"/>
      <path id="Trazado_50" data-name="Trazado 50" d="M125.135,520.372l-.359-.024c-.339,0-.558.1-.655.292v2H123.04v-3.157h1.014l.037.4a.844.844,0,0,1,.761-.465,1.165,1.165,0,0,1,.3.037Z" transform="translate(-44.113 -518.156)" fill="#fff"/>
      <path id="Trazado_51" data-name="Trazado 51" d="M126.322,522.639a1.137,1.137,0,0,1-.1-.283,1.05,1.05,0,0,1-.835.342,1.3,1.3,0,0,1-.832-.27.831.831,0,0,1-.346-.679.864.864,0,0,1,.417-.776,2.3,2.3,0,0,1,1.215-.262h.333v-.169c0-.292-.138-.437-.413-.437-.257,0-.387.117-.387.346h-1.081a.862.862,0,0,1,.428-.744,1.949,1.949,0,0,1,1.094-.285,1.692,1.692,0,0,1,1.049.3.98.98,0,0,1,.4.807v1.4a1.321,1.321,0,0,0,.149.666v.05Zm-.677-.642a.651.651,0,0,0,.335-.08.516.516,0,0,0,.19-.177v-.5h-.313c-.376,0-.566.151-.566.458a.267.267,0,0,0,.1.218A.377.377,0,0,0,125.645,522Z" transform="translate(-42.757 -518.155)" fill="#fff"/>
      <path id="Trazado_52" data-name="Trazado 52" d="M127.122,523.319h-1.083v-4.484h1.083Z" transform="translate(-40.628 -518.835)" fill="#fff"/>
    </g>
    <rect id="Rectángulo_6" data-name="Rectángulo 6" width="5.928" height="15.778" transform="translate(32.474 3.654)" fill="#fff"/>
    <path id="Trazado_53" data-name="Trazado 53" d="M117.394,508.751v15.777h20.588v-2.975H123.42v-3.574h14.562v-2.77H123.526v-3.6h14.46v-2.86Z" transform="translate(-48.925 -505.097)" fill="#fff"/>
    <path id="Trazado_54" data-name="Trazado 54" d="M88.2,517.414c1.459-2.028,6.581-8.834,10.108-10.354,2.592,4.815,8.534,9.5,10.341,10.354a27.4,27.4,0,0,0-6.294,4.806H92.251c-1.382-1.3-3.511-3.546-4.045-4.806" transform="translate(-82.85 -507.06)" fill="#fff"/>
  </g>
</svg>
