<svg id="pleca_1a_etapa" data-name="pleca 1a etapa" xmlns="http://www.w3.org/2000/svg" xmlns:xlink="http://www.w3.org/1999/xlink" width="263.786" height="30" viewBox="0 0 263.786 30">
  <defs>
    <clipPath id="clip-path">
      <rect id="Rectángulo_27503" data-name="Rectángulo 27503" width="168.259" height="14.473" transform="translate(0 0)" fill="none"/>
    </clipPath>
  </defs>
  <g id="Grupo_24879" data-name="Grupo 24879" transform="translate(-1047.214 -238)">
    <path id="Trazado_28287" data-name="Trazado 28287" d="M-30,0h20L20,30H0Z" transform="translate(1291 238)" fill="#b7006d"/>
    <path id="Trazado_28288" data-name="Trazado 28288" d="M-20,0h10L20,30H10Z" transform="translate(1268 238)" fill="#d5007f"/>
    <path id="Trazado_28289" data-name="Trazado 28289" d="M-207.786,0H-10L20,30H-177.786Z" transform="translate(1255 238)" fill="#fcedf6"/>
  </g>
  <g id="Grupo_25176" data-name="Grupo 25176" transform="translate(30.785 9)">
    <path id="Trazado_29059" data-name="Trazado 29059" d="M0,1V2.116L2.322,2.1v9.331h1.45V.608Z" fill="#d5007f"/>
    <g id="Grupo_25177" data-name="Grupo 25177">
      <g id="Grupo_25176-2" data-name="Grupo 25176" clip-path="url(#clip-path)">
        <path id="Trazado_29060" data-name="Trazado 29060" d="M12.935,11.426q-.074-.36-.113-.634a4.436,4.436,0,0,1-.048-.553,3.377,3.377,0,0,1-1.051.956,2.692,2.692,0,0,1-1.395.384,2.585,2.585,0,0,1-1.886-.633A2.327,2.327,0,0,1,7.793,9.2a2.048,2.048,0,0,1,.919-1.776,4.3,4.3,0,0,1,2.495-.641h1.567V6a1.455,1.455,0,0,0-.425-1.1,1.668,1.668,0,0,0-1.2-.406,1.743,1.743,0,0,0-1.135.351,1.056,1.056,0,0,0-.432.843L8.211,5.7,8.2,5.654a1.9,1.9,0,0,1,.809-1.582,3.358,3.358,0,0,1,2.223-.718,3.273,3.273,0,0,1,2.168.685,2.427,2.427,0,0,1,.821,1.974V9.829a7.248,7.248,0,0,0,.044.82,4.206,4.206,0,0,0,.161.777Zm-2.4-1.055a2.567,2.567,0,0,0,1.414-.4,1.915,1.915,0,0,0,.82-.923V7.756H11.155A2.1,2.1,0,0,0,9.76,8.2a1.314,1.314,0,0,0-.524,1.032,1.085,1.085,0,0,0,.33.835,1.38,1.38,0,0,0,.974.308" fill="#d5007f"/>
        <path id="Trazado_29061" data-name="Trazado 29061" d="M26.06,6.482H21.68V10.3h5.127v1.128h-6.57V.762h6.49V1.9H21.68v3.45h4.38Z" fill="#d5007f"/>
        <path id="Trazado_29062" data-name="Trazado 29062" d="M30.322,1.589V3.5h1.5V4.57h-1.5V9.382a1.079,1.079,0,0,0,.231.784.833.833,0,0,0,.611.227,1.42,1.42,0,0,0,.279-.033,1.965,1.965,0,0,0,.256-.07l.2.989a1.275,1.275,0,0,1-.476.216,2.412,2.412,0,0,1-.623.084,1.869,1.869,0,0,1-1.4-.531,2.3,2.3,0,0,1-.52-1.666V4.57h-1.26V3.5h1.26V1.589Z" fill="#d5007f"/>
        <path id="Trazado_29063" data-name="Trazado 29063" d="M38.24,11.426q-.073-.36-.113-.634a4.437,4.437,0,0,1-.048-.553,3.377,3.377,0,0,1-1.051.956,2.692,2.692,0,0,1-1.4.384,2.585,2.585,0,0,1-1.886-.633A2.327,2.327,0,0,1,33.1,9.2a2.048,2.048,0,0,1,.919-1.776,4.3,4.3,0,0,1,2.5-.641h1.567V6a1.455,1.455,0,0,0-.425-1.1,1.668,1.668,0,0,0-1.2-.406,1.743,1.743,0,0,0-1.135.351,1.056,1.056,0,0,0-.432.843l-1.37.014L33.5,5.654a1.9,1.9,0,0,1,.809-1.582,3.358,3.358,0,0,1,2.223-.718,3.273,3.273,0,0,1,2.168.685,2.427,2.427,0,0,1,.821,1.974V9.829a7.247,7.247,0,0,0,.044.82,4.206,4.206,0,0,0,.161.777Zm-2.4-1.055a2.567,2.567,0,0,0,1.414-.4,1.915,1.915,0,0,0,.82-.923V7.756H36.46a2.1,2.1,0,0,0-1.4.44,1.314,1.314,0,0,0-.524,1.032,1.085,1.085,0,0,0,.33.835,1.38,1.38,0,0,0,.974.308" fill="#d5007f"/>
        <path id="Trazado_29064" data-name="Trazado 29064" d="M48.369,7.764a4.37,4.37,0,0,1-.82,2.764,2.711,2.711,0,0,1-2.264,1.052A3.134,3.134,0,0,1,44,11.334a2.452,2.452,0,0,1-.941-.736v3.875H41.616V3.5h1.106l.227,1.026a2.616,2.616,0,0,1,.967-.872,2.885,2.885,0,0,1,1.347-.3,2.632,2.632,0,0,1,2.289,1.168,5.289,5.289,0,0,1,.817,3.087ZM46.926,7.61A4.185,4.185,0,0,0,46.4,5.395a1.72,1.72,0,0,0-1.564-.868,1.925,1.925,0,0,0-1.062.282,2.1,2.1,0,0,0-.71.772V9.412a2.042,2.042,0,0,0,.71.765,2,2,0,0,0,1.077.275A1.775,1.775,0,0,0,46.4,9.7a3.3,3.3,0,0,0,.527-1.937Z" fill="#d5007f"/>
        <path id="Trazado_29065" data-name="Trazado 29065" d="M55.012,11.426q-.073-.36-.113-.634a4.436,4.436,0,0,1-.048-.553,3.377,3.377,0,0,1-1.051.956,2.692,2.692,0,0,1-1.4.384,2.585,2.585,0,0,1-1.886-.633A2.327,2.327,0,0,1,49.87,9.2a2.048,2.048,0,0,1,.919-1.776,4.3,4.3,0,0,1,2.495-.641h1.567V6a1.455,1.455,0,0,0-.425-1.1,1.668,1.668,0,0,0-1.2-.406,1.743,1.743,0,0,0-1.135.351,1.056,1.056,0,0,0-.432.843l-1.37.014-.015-.044a1.9,1.9,0,0,1,.809-1.582,3.358,3.358,0,0,1,2.223-.718,3.273,3.273,0,0,1,2.168.685,2.427,2.427,0,0,1,.821,1.974V9.829a7.247,7.247,0,0,0,.044.82,4.206,4.206,0,0,0,.161.777Zm-2.4-1.055a2.567,2.567,0,0,0,1.414-.4,1.915,1.915,0,0,0,.82-.923V7.756H53.232a2.1,2.1,0,0,0-1.395.44,1.314,1.314,0,0,0-.524,1.032,1.085,1.085,0,0,0,.33.835,1.38,1.38,0,0,0,.974.308" fill="#d5007f"/>
        <path id="Trazado_29066" data-name="Trazado 29066" d="M61.787,7.61A5.283,5.283,0,0,1,62.6,4.527a2.629,2.629,0,0,1,2.289-1.172,2.839,2.839,0,0,1,1.234.256,2.539,2.539,0,0,1,.919.747V0h1.443V11.426H67.383l-.22-1a2.574,2.574,0,0,1-.959.864,2.872,2.872,0,0,1-1.326.293,2.72,2.72,0,0,1-2.271-1.051,4.373,4.373,0,0,1-.82-2.765Zm1.443.154a3.366,3.366,0,0,0,.491,1.923,1.713,1.713,0,0,0,1.523.721,1.913,1.913,0,0,0,1.084-.293,2.193,2.193,0,0,0,.718-.82V5.6a2.224,2.224,0,0,0-.722-.78,1.9,1.9,0,0,0-1.065-.289,1.646,1.646,0,0,0-1.534.857A4.416,4.416,0,0,0,63.23,7.61Z" fill="#d5007f"/>
        <path id="Trazado_29067" data-name="Trazado 29067" d="M73.923,11.58a3.356,3.356,0,0,1-2.663-1.091,4.208,4.208,0,0,1-.955-2.872V7.3a4.109,4.109,0,0,1,.985-2.823A3.087,3.087,0,0,1,73.7,3.355a2.873,2.873,0,0,1,2.384.989,4.07,4.07,0,0,1,.795,2.629v.762H71.806l-.022.036a3.27,3.27,0,0,0,.528,1.937,1.84,1.84,0,0,0,1.611.744,3.639,3.639,0,0,0,1.286-.209,2.877,2.877,0,0,0,.948-.575l.564.938A3.474,3.474,0,0,1,75.6,11.3a4.464,4.464,0,0,1-1.677.282M73.7,4.49a1.568,1.568,0,0,0-1.249.583,2.75,2.75,0,0,0-.6,1.49l.015.036h3.574V6.482a2.309,2.309,0,0,0-.425-1.428A1.535,1.535,0,0,0,73.7,4.49" fill="#d5007f"/>
        <path id="Trazado_29068" data-name="Trazado 29068" d="M90.029,8.013l.015.044a3.2,3.2,0,0,1-1.055,2.512,4.03,4.03,0,0,1-2.864,1.011A3.759,3.759,0,0,1,83.177,10.3a4.713,4.713,0,0,1-1.139-3.252v-1.9a4.726,4.726,0,0,1,1.139-3.255A3.753,3.753,0,0,1,86.125.608,4.143,4.143,0,0,1,89,1.572a3.184,3.184,0,0,1,1.04,2.552l-.015.044H88.645a2.384,2.384,0,0,0-.659-1.773,2.537,2.537,0,0,0-1.861-.652,2.271,2.271,0,0,0-1.926.975,3.959,3.959,0,0,0-.718,2.417V7.046A3.987,3.987,0,0,0,84.2,9.478a2.273,2.273,0,0,0,1.926.974A2.543,2.543,0,0,0,87.986,9.8a2.4,2.4,0,0,0,.659-1.791Z" fill="#d5007f"/>
        <path id="Trazado_29069" data-name="Trazado 29069" d="M96.592,11.426q-.074-.36-.113-.634a4.436,4.436,0,0,1-.048-.553,3.377,3.377,0,0,1-1.051.956,2.692,2.692,0,0,1-1.395.384,2.585,2.585,0,0,1-1.886-.633A2.328,2.328,0,0,1,91.45,9.2a2.048,2.048,0,0,1,.919-1.776,4.3,4.3,0,0,1,2.495-.641h1.567V6a1.455,1.455,0,0,0-.425-1.1,1.668,1.668,0,0,0-1.2-.406,1.743,1.743,0,0,0-1.135.351,1.056,1.056,0,0,0-.432.843l-1.37.014-.015-.044a1.9,1.9,0,0,1,.809-1.582,3.358,3.358,0,0,1,2.223-.718,3.273,3.273,0,0,1,2.168.685,2.427,2.427,0,0,1,.821,1.974V9.829a7.248,7.248,0,0,0,.044.82,4.206,4.206,0,0,0,.161.777Zm-2.4-1.055a2.567,2.567,0,0,0,1.414-.4,1.915,1.915,0,0,0,.82-.923V7.756H94.812a2.1,2.1,0,0,0-1.395.44,1.314,1.314,0,0,0-.524,1.032,1.085,1.085,0,0,0,.33.835,1.38,1.38,0,0,0,.974.308" fill="#d5007f"/>
        <path id="Trazado_29070" data-name="Trazado 29070" d="M106.721,7.764a4.37,4.37,0,0,1-.82,2.764,2.711,2.711,0,0,1-2.264,1.052,3.134,3.134,0,0,1-1.285-.246,2.452,2.452,0,0,1-.941-.736v3.875H99.968V3.5h1.106l.227,1.026a2.616,2.616,0,0,1,.967-.872,2.885,2.885,0,0,1,1.347-.3A2.632,2.632,0,0,1,105.9,4.523a5.289,5.289,0,0,1,.817,3.087Zm-1.443-.154a4.185,4.185,0,0,0-.531-2.215,1.72,1.72,0,0,0-1.564-.868,1.925,1.925,0,0,0-1.062.282,2.1,2.1,0,0,0-.71.772V9.412a2.042,2.042,0,0,0,.71.765,2,2,0,0,0,1.077.275,1.775,1.775,0,0,0,1.553-.751,3.3,3.3,0,0,0,.527-1.937Z" fill="#d5007f"/>
        <path id="Trazado_29071" data-name="Trazado 29071" d="M113.364,11.426q-.073-.36-.113-.634a4.436,4.436,0,0,1-.048-.553,3.377,3.377,0,0,1-1.051.956,2.692,2.692,0,0,1-1.395.384,2.585,2.585,0,0,1-1.886-.633,2.328,2.328,0,0,1-.649-1.747,2.048,2.048,0,0,1,.919-1.776,4.3,4.3,0,0,1,2.5-.641H113.2V6a1.455,1.455,0,0,0-.425-1.1,1.668,1.668,0,0,0-1.2-.406,1.743,1.743,0,0,0-1.135.351,1.056,1.056,0,0,0-.432.843l-1.37.014-.015-.044a1.9,1.9,0,0,1,.809-1.582,3.358,3.358,0,0,1,2.223-.718,3.273,3.273,0,0,1,2.168.685,2.427,2.427,0,0,1,.821,1.974V9.829a7.248,7.248,0,0,0,.044.82,4.207,4.207,0,0,0,.161.777Zm-2.395-1.055a2.567,2.567,0,0,0,1.414-.4,1.915,1.915,0,0,0,.82-.923V7.756h-1.619a2.1,2.1,0,0,0-1.395.44,1.314,1.314,0,0,0-.524,1.032,1.085,1.085,0,0,0,.33.835,1.38,1.38,0,0,0,.974.308" fill="#d5007f"/>
        <path id="Trazado_29072" data-name="Trazado 29072" d="M119.89,10.452a1.7,1.7,0,0,0,1.165-.443,1.4,1.4,0,0,0,.5-1.088h1.3l.022.044a2.271,2.271,0,0,1-.879,1.82,3.357,3.357,0,0,1-4.687-.34,4.381,4.381,0,0,1-.908-2.827V7.31a4.367,4.367,0,0,1,.911-2.816,3.113,3.113,0,0,1,2.575-1.139,2.986,2.986,0,0,1,2.171.82,2.6,2.6,0,0,1,.817,2.014l-.014.044h-1.311A1.75,1.75,0,0,0,121.08,5a1.555,1.555,0,0,0-1.19-.509,1.666,1.666,0,0,0-1.549.824,3.857,3.857,0,0,0-.487,2v.308a3.93,3.93,0,0,0,.48,2.014,1.663,1.663,0,0,0,1.556.82" fill="#d5007f"/>
        <path id="Trazado_29073" data-name="Trazado 29073" d="M126.152,1.473h-1.443V0h1.443Zm0,9.953h-1.443V3.5h1.443Z" fill="#d5007f"/>
        <path id="Trazado_29074" data-name="Trazado 29074" d="M130.378,1.589V3.5h1.5V4.57h-1.5V9.382a1.079,1.079,0,0,0,.231.784.833.833,0,0,0,.611.227,1.42,1.42,0,0,0,.279-.033,1.966,1.966,0,0,0,.256-.07l.2.989a1.275,1.275,0,0,1-.476.216,2.412,2.412,0,0,1-.623.084,1.869,1.869,0,0,1-1.4-.531,2.3,2.3,0,0,1-.52-1.666V4.57h-1.26V3.5h1.26V1.589Z" fill="#d5007f"/>
        <path id="Trazado_29075" data-name="Trazado 29075" d="M138.3,11.426q-.074-.36-.113-.634a4.437,4.437,0,0,1-.048-.553,3.377,3.377,0,0,1-1.051.956,2.692,2.692,0,0,1-1.4.384,2.585,2.585,0,0,1-1.886-.633,2.327,2.327,0,0,1-.649-1.747,2.048,2.048,0,0,1,.919-1.776,4.3,4.3,0,0,1,2.495-.641h1.567V6a1.455,1.455,0,0,0-.425-1.1,1.668,1.668,0,0,0-1.2-.406,1.743,1.743,0,0,0-1.135.351,1.056,1.056,0,0,0-.432.843l-1.37.014-.015-.044a1.9,1.9,0,0,1,.809-1.582,3.358,3.358,0,0,1,2.223-.718,3.273,3.273,0,0,1,2.168.685,2.427,2.427,0,0,1,.821,1.974V9.829a7.248,7.248,0,0,0,.044.82,4.207,4.207,0,0,0,.161.777Zm-2.4-1.055a2.567,2.567,0,0,0,1.414-.4,1.915,1.915,0,0,0,.82-.923V7.756h-1.619a2.1,2.1,0,0,0-1.4.44,1.314,1.314,0,0,0-.524,1.032,1.085,1.085,0,0,0,.33.835,1.38,1.38,0,0,0,.974.308" fill="#d5007f"/>
        <path id="Trazado_29076" data-name="Trazado 29076" d="M144.822,10.452a1.7,1.7,0,0,0,1.165-.443,1.4,1.4,0,0,0,.5-1.088h1.3l.022.044a2.271,2.271,0,0,1-.879,1.82,3.357,3.357,0,0,1-4.687-.34,4.381,4.381,0,0,1-.908-2.827V7.31a4.367,4.367,0,0,1,.911-2.816,3.113,3.113,0,0,1,2.575-1.139,2.986,2.986,0,0,1,2.171.82,2.6,2.6,0,0,1,.817,2.014l-.014.044h-1.311A1.75,1.75,0,0,0,146.012,5a1.555,1.555,0,0,0-1.19-.509,1.666,1.666,0,0,0-1.549.824,3.857,3.857,0,0,0-.487,2v.308a3.93,3.93,0,0,0,.48,2.014,1.663,1.663,0,0,0,1.556.82" fill="#d5007f"/>
        <path id="Trazado_29077" data-name="Trazado 29077" d="M151.084,1.473h-1.443V0h1.443Zm0,9.953h-1.443V3.5h1.443Z" fill="#d5007f"/>
        <path id="Trazado_29078" data-name="Trazado 29078" d="M152.966,7.39a4.363,4.363,0,0,1,.952-2.9,3.528,3.528,0,0,1,5.189,0,4.342,4.342,0,0,1,.956,2.9v.161a4.342,4.342,0,0,1-.952,2.9,3.546,3.546,0,0,1-5.189,0,4.337,4.337,0,0,1-.956-2.9Zm1.443.161a3.758,3.758,0,0,0,.531,2.08,1.917,1.917,0,0,0,3.146,0,3.742,3.742,0,0,0,.534-2.08V7.39a3.728,3.728,0,0,0-.538-2.073A1.763,1.763,0,0,0,156.5,4.49a1.739,1.739,0,0,0-1.564.827,3.769,3.769,0,0,0-.531,2.073ZM157.214.139H158.9l.014.044-1.97,1.9h-1.084Z" fill="#d5007f"/>
        <path id="Trazado_29079" data-name="Trazado 29079" d="M163.118,3.5l.1,1.179a2.88,2.88,0,0,1,.992-.978,2.658,2.658,0,0,1,1.359-.347,2.586,2.586,0,0,1,1.984.75,3.3,3.3,0,0,1,.7,2.318v5h-1.443V6.453a2.142,2.142,0,0,0-.414-1.487,1.659,1.659,0,0,0-1.264-.44,2.238,2.238,0,0,0-1.131.268,1.937,1.937,0,0,0-.736.75v5.882h-1.443V3.5Z" fill="#d5007f"/>
      </g>
    </g>
  </g>
</svg>
